<?xml version="1.0" encoding="iso-8859-1"?>
<!-- Generator: Adobe Illustrator 19.0.0, SVG Export Plug-In . SVG Version: 6.00 Build 0)  -->
<svg version="1.1" id="Capa_1" xmlns="http://www.w3.org/2000/svg" xmlns:xlink="http://www.w3.org/1999/xlink" x="0px" y="0px"
	 viewBox="0 0 479.71 479.71" style="enable-background:new 0 0 479.71 479.71;" xml:space="preserve">
<g>
	<g>
		<path d="M469.936,328.847c-0.96-0.927-1.977-1.792-3.045-2.592c-13.381-8.971-31.276-7.013-42.4,4.64l-10.08,10.08
			c-3.469,3.481-6.383,7.474-8.64,11.84l-6.24,12V66.575c0.634-16.247-10.62-30.552-26.56-33.76
			c-17.486-2.564-33.74,9.534-36.303,27.02c-0.242,1.649-0.354,3.314-0.337,4.98v299.52l-4.32-9.44
			c-2.335-5.046-5.529-9.648-9.44-13.6l-10.56-10.56c-11.124-11.653-29.019-13.611-42.4-4.64
			c-14.259,10.441-17.355,30.464-6.914,44.724c0.844,1.152,1.764,2.247,2.754,3.276l80,80c12.49,12.504,32.751,12.515,45.255,0.025
			c0.008-0.008,0.017-0.017,0.025-0.025l80-80C483.006,361.38,482.65,341.122,469.936,328.847z"/>
	</g>
</g>
<g>
	<g>
		<path d="M214.411,104.655l-78.88-79.04C123.041,13.111,102.78,13.1,90.276,25.59c-0.008,0.008-0.017,0.017-0.025,0.025l-80,80
			c-11.653,11.124-13.611,29.019-4.64,42.4c10.441,14.259,30.464,17.355,44.724,6.914c1.152-0.844,2.247-1.764,3.276-2.754
			l10.88-10.88c5.215-5.219,9.158-11.57,11.52-18.56l4.32-9.92v302.24c-0.607,16.347,10.812,30.689,26.88,33.76
			c17.445,2.829,33.881-9.019,36.71-26.465c0.297-1.83,0.434-3.682,0.41-5.535v-304l3.2,9.12c2.403,6.746,6.284,12.869,11.36,17.92
			l11.52,11.52c12.492,12.501,32.753,12.509,45.255,0.017c0.621-0.621,1.217-1.267,1.785-1.937
			C228.183,135.984,226.864,116.552,214.411,104.655z"/>
	</g>
</g>
<g>
</g>
<g>
</g>
<g>
</g>
<g>
</g>
<g>
</g>
<g>
</g>
<g>
</g>
<g>
</g>
<g>
</g>
<g>
</g>
<g>
</g>
<g>
</g>
<g>
</g>
<g>
</g>
<g>
</g>
</svg>
