<?xml version="1.0" encoding="utf-8"?><svg version="1.1" id="Layer_1" xmlns="http://www.w3.org/2000/svg" xmlns:xlink="http://www.w3.org/1999/xlink" x="0px" y="0px" viewBox="0 0 108.56 122.88" style="enable-background:new 0 0 108.56 122.88" xml:space="preserve"><g><path d="M30.47,16.05h12.47l-6.35-7.16c-1.96-2.21-1.75-5.59,0.46-7.55c2.21-1.96,5.59-1.75,7.55,0.46l9.11,10.27L62.81,1.8 c1.96-2.21,5.34-2.42,7.55-0.46c2.21,1.96,2.42,5.34,0.46,7.55l-6.35,7.16h13.62c8.4,0,16.04,3.43,21.57,8.96 c5.49,5.49,8.9,13.05,8.9,21.35v46.21c0,8.3-3.41,15.86-8.9,21.35c-5.53,5.53-13.16,8.96-21.57,8.96H30.47 c-8.4,0-16.04-3.43-21.57-8.96C3.41,108.43,0,100.87,0,92.57V46.36c0-8.3,3.41-15.86,8.9-21.35 C14.43,19.48,22.07,16.05,30.47,16.05L30.47,16.05z M27.88,75.18c-2.86,0.74-5.78-0.98-6.52-3.84c-0.74-2.86,0.98-5.78,3.84-6.52 l28.8-7.45c2.86-0.74,5.78,0.98,6.52,3.84c0.14,0.53,0.19,1.07,0.17,1.59l-0.32,6.38l19.17-5.52c2.84-0.81,5.79,0.83,6.61,3.67 c0.81,2.84-0.83,5.79-3.67,6.61l-26.02,7.5c-0.64,0.23-1.34,0.34-2.06,0.31c-2.95-0.14-5.23-2.65-5.1-5.6l0.33-6.58L27.88,75.18 L27.88,75.18z M78.09,26.48H30.47c-5.4,0-10.31,2.22-13.88,5.78c-3.6,3.6-5.84,8.59-5.84,14.1v46.21c0,5.51,2.24,10.5,5.84,14.1 c3.57,3.57,8.48,5.78,13.88,5.78h47.61c5.4,0,10.31-2.22,13.88-5.78c3.6-3.6,5.84-8.59,5.84-14.1V46.36c0-5.51-2.24-10.5-5.84-14.1 C88.4,28.69,83.49,26.48,78.09,26.48L78.09,26.48z"/></g></svg>