<svg xmlns="http://www.w3.org/2000/svg"  viewBox="0 0 333333 333333" shape-rendering="geometricPrecision" text-rendering="geometricPrecision" image-rendering="optimizeQuality" fill-rule="evenodd" clip-rule="evenodd"><defs><linearGradient id="a" gradientUnits="userSpaceOnUse" x1="108324" y1="338806" x2="225009" y2="-5472.44"><stop offset="0" stop-color="#f58529"/><stop offset=".161" stop-color="#feda77"/><stop offset=".431" stop-color="#dd2a7b"/><stop offset=".741" stop-color="#8134af"/><stop offset="1" stop-color="#515bd4"/></linearGradient></defs><path d="M302077 0H31255C14069 0 1 14068 1 31256v270822c0 17186 14068 31254 31254 31254h270822c17186 0 31254-14068 31254-31254l2-270824C333333 14068 319265 0 302079 0h-2zM123171 64669h86994c32670 0 59385 26385 59385 58618v86760c0 32241-26715 58617-59383 58617l-86996-1c-32670 0-59389-26376-59389-58617v-86760c0-32232 26719-58617 59389-58617zm42941 46921c31746 0 57507 25761 57507 57507 0 31750-25761 57507-57507 57507-31755 0-57512-25758-57512-57507 0-31746 25757-57507 57512-57507zm0 19424c21022 0 38084 17059 38084 38084 0 21026-17062 38088-38084 38088-21030 0-38088-17062-38088-38088s17059-38084 38088-38084zm55636-27394c5157 0 9339 4181 9339 9334 0 5157-4181 9338-9339 9338-5154 0-9333-4181-9333-9338 0-5154 4181-9334 9333-9334zm-91469-22287h72784c27330 0 49681 22241 49681 49420v73149c0 27178-22352 49415-49681 49415l-72784 1c-27330 0-49685-22237-49685-49415v-73151c0-27178 22355-49419 49685-49419z" fill="url(#a)"/></svg>